<svg width="512" height="512" viewBox="0 0 512 512" fill="none" xmlns="http://www.w3.org/2000/svg">
<path d="M318.613 178.09C345.872 201.533 350.992 233.261 353.642 267.49C353.935 271.41 354.219 275.33 354.5 279.25C355.594 294.458 356.758 309.599 358.98 324.691C359.138 325.763 359.295 326.834 359.457 327.937C362.492 347.482 368.469 365.678 378.25 382.887C379.226 385.638 378.877 387.245 378 390C375.633 392.367 374.674 392.4 371.43 392.852C370.534 392.98 369.638 393.109 368.715 393.242C367.778 393.369 366.84 393.495 365.875 393.625C364.458 393.826 364.458 393.826 363.012 394.031C360.675 394.362 358.338 394.684 356 395C356.518 395.195 357.036 395.39 357.569 395.592C363.042 397.657 368.51 399.736 373.975 401.824C376.005 402.597 378.036 403.367 380.069 404.133C421.119 419.614 421.119 419.614 429.887 437.371C433.951 446.968 434.155 457.3 434.168 467.582C434.171 468.559 434.174 469.535 434.178 470.541C434.183 472.589 434.185 474.637 434.185 476.685C434.187 479.821 434.206 482.956 434.224 486.092C434.227 488.089 434.229 490.085 434.23 492.082C434.238 493.018 434.245 493.953 434.252 494.917C434.249 495.788 434.246 496.66 434.243 497.558C434.244 498.321 434.246 499.085 434.247 499.871C433.96 502.345 433.367 503.919 432 506C428.909 507.03 426.793 507.127 423.553 507.131C422.415 507.135 421.276 507.139 420.104 507.143C418.847 507.142 417.591 507.141 416.297 507.14C414.953 507.143 413.609 507.146 412.265 507.149C408.565 507.158 404.864 507.159 401.164 507.16C397.176 507.162 393.188 507.169 389.201 507.176C380.478 507.19 371.754 507.196 363.031 507.2C357.587 507.203 352.143 507.207 346.699 507.212C331.631 507.224 316.564 507.234 301.497 507.238C300.05 507.238 300.05 507.238 298.574 507.238C297.124 507.239 297.124 507.239 295.644 507.239C293.685 507.239 291.725 507.24 289.766 507.24C288.308 507.241 288.308 507.241 286.821 507.241C271.065 507.245 255.31 507.262 239.555 507.286C223.387 507.309 207.22 507.322 191.053 507.323C181.972 507.324 172.891 507.33 163.811 507.348C156.08 507.363 148.349 507.368 140.617 507.36C136.672 507.356 132.726 507.357 128.78 507.371C125.169 507.384 121.558 507.383 117.947 507.371C116.019 507.368 114.091 507.38 112.164 507.392C111.02 507.385 109.876 507.379 108.698 507.372C107.711 507.373 106.724 507.373 105.708 507.374C102.491 506.93 100.594 505.929 97.9999 504C97.3784 501.67 97.3784 501.67 97.3846 498.893C97.3753 497.851 97.366 496.809 97.3564 495.735C97.381 494.043 97.381 494.043 97.4061 492.316C97.4061 491.151 97.406 489.985 97.406 488.783C97.4114 486.309 97.429 483.835 97.4579 481.362C97.4994 477.608 97.499 473.857 97.4921 470.104C97.5026 467.695 97.5155 465.287 97.5311 462.879C97.5313 461.769 97.5315 460.659 97.5317 459.516C97.7299 446.183 100.644 434.587 110.117 424.816C122.724 413.929 139.86 408.477 155.187 402.625C157.048 401.908 158.908 401.191 160.767 400.473C164.87 398.889 168.974 397.312 173.083 395.745C174.689 395.121 176.281 394.458 177.868 393.787C180 393 180 393 183 393C183 392.34 183 391.68 183 391C182.201 390.963 181.401 390.925 180.578 390.887C159.063 389.599 159.063 389.599 154 384C153.445 380.118 153.413 377.918 155.547 374.578C156.274 373.81 157.001 373.042 157.75 372.25C173.017 354.699 187.225 330.412 187.531 306.563C186.937 303.696 185.738 301.577 184.23 299.088C181.676 294.753 179.525 290.203 177.312 285.688C176.814 284.706 176.316 283.724 175.803 282.713C172.696 276.344 169.367 269.096 171.66 261.94C173.661 258.047 176.036 255.773 180 254C180.66 254 181.32 254 182 254C181.86 253.425 181.72 252.851 181.576 252.259C177.057 232.083 178.746 210.859 189.16 192.871C195.344 183.221 203.75 176.074 215 173C216.747 172.889 218.499 172.826 220.25 172.813C225.989 172.393 229.062 170.227 233.539 166.781C258.483 148.727 297.058 160.852 318.613 178.09ZM231 183C228.838 183.177 226.669 183.268 224.5 183.313C215.809 183.846 209.436 186.125 203.312 192.438C194.149 203.881 190.642 216.423 190.75 230.813C190.742 231.829 190.734 232.845 190.726 233.893C190.744 240.792 191.539 247.26 193 254C193.99 254.33 194.98 254.66 196 255C209.639 242.309 209.639 242.309 220 227C220.619 225.886 221.237 224.773 221.875 223.625C223.566 218.174 223.752 212.679 224 207C239.142 205.812 252.207 214.377 264.561 222.064C279.302 231.215 293.136 236.935 310 241C319.362 243.343 325.153 245.942 330.75 254.063C338.62 267.221 338.015 280.411 334.548 294.859C329.437 314.828 321.967 335.157 308.383 350.965C305.709 354.9 305.832 359.003 306.125 363.625C306.169 364.566 306.213 365.507 306.258 366.477C306.763 369.16 306.763 369.16 309.109 370.488C310.063 370.987 311.017 371.486 312 372C314.432 373.781 316.772 375.678 319.125 377.563C320.356 378.544 321.588 379.524 322.82 380.504C323.359 380.935 323.898 381.366 324.453 381.811C328.686 385.066 331.32 385.166 336.441 384.793C337.165 384.748 337.888 384.703 338.634 384.657C340.161 384.56 341.689 384.458 343.215 384.351C345.556 384.188 347.898 384.041 350.24 383.896C351.724 383.8 353.208 383.703 354.691 383.605C355.393 383.561 356.095 383.516 356.819 383.47C360.533 383.239 360.533 383.239 364 382C362.607 377.643 360.962 373.464 359.187 369.25C347.395 340.152 345.704 308.587 343.254 277.621C340.176 232.004 340.176 232.004 318 193C317.424 192.341 316.847 191.683 316.254 191.004C304.358 178.196 286.424 171.151 269.308 169.684C254.711 169.212 241.512 172.488 231 183ZM234 219C233.709 219.822 233.417 220.645 233.117 221.492C227.577 236.578 219.212 249.325 206.691 259.598C206.133 260.06 205.575 260.523 205 261C204.466 261.421 203.933 261.842 203.383 262.275C201.782 263.933 201.782 263.933 201.849 266.31C205.264 294.367 213.056 325.853 233 347C233.914 348.048 233.914 348.048 234.848 349.117C240.776 355.569 249.054 362.02 258 363C273.517 363.547 273.517 363.547 287 357C288.237 355.985 288.237 355.985 289.5 354.949C292.094 352.715 294.559 350.4 297 348C297.617 347.395 298.235 346.791 298.871 346.168C314.76 329.325 327.615 298.447 327.215 275.207C326.525 268.118 324.111 261.099 319 256C313.962 251.947 309.113 250.837 302.937 249.563C294.617 247.705 286.801 245.511 279 242C277.934 241.522 276.868 241.044 275.769 240.551C267.716 236.723 260.275 232.163 252.835 227.263C244.058 221.303 244.058 221.303 234 219ZM182 266C184.165 273.014 186.972 279.47 190.187 286.063C190.651 287.024 191.114 287.985 191.592 288.975C192.723 291.319 193.859 293.66 195 296C196.279 292.327 195.752 289.517 195.039 285.738C194.815 284.538 194.59 283.337 194.359 282.1C193.996 280.225 193.996 280.225 193.625 278.313C193.39 277.051 193.156 275.79 192.914 274.49C192.335 268.845 192.335 268.845 190 264C186.278 263.706 185.222 263.852 182 266ZM199 309C198.781 310.27 198.562 311.539 198.336 312.848C196.348 323.85 193.851 333.867 189 344C188.679 344.671 188.358 345.342 188.027 346.033C182.658 357.048 176.152 367.068 169 377C171.86 378.907 172.968 379.339 176.211 379.816C177.037 379.941 177.863 380.066 178.714 380.195C182.318 380.693 185.924 381.173 189.531 381.642C191.608 381.943 193.667 382.359 195.719 382.801C200.951 383.753 204.289 383.72 208.726 380.711C211.799 378.399 214.653 375.882 217.487 373.287C219.496 371.578 221.736 370.34 224 369C224.969 366.85 224.969 366.85 225 364C225.12 363.299 225.24 362.598 225.363 361.875C225.986 356.072 224.74 353.107 221.125 348.563C220.308 347.562 219.49 346.562 218.648 345.531C211.09 335.91 205.88 323.781 201.937 312.273C201.224 309.839 201.224 309.839 199 309ZM289.301 367.613C288.541 368.071 287.782 368.529 287 369C286.174 369.532 285.347 370.065 284.496 370.613C279.314 372.669 274.281 372.693 268.75 372.875C267.128 372.964 267.128 372.964 265.473 373.055C256.483 373.402 248.757 372.061 241 367.313C238.191 365.481 238.191 365.481 235 365C234.137 370.495 233.727 375.095 236.91 379.859C239.529 382.661 242.254 385.324 245 388C246.527 389.811 248.028 391.644 249.5 393.5C254.11 399.216 259.01 404.615 264 410C267.189 409.427 268.741 408.613 270.918 406.227C271.446 405.654 271.973 405.082 272.517 404.492C273.068 403.876 273.62 403.26 274.187 402.625C274.761 401.995 275.335 401.365 275.926 400.717C280.133 396.063 284.175 391.302 288.055 386.371C290 384 290 384 291.883 382.223C294.852 379.399 295.906 377.861 296.363 373.684C296.374 370.432 296.263 367.24 296 364C293.658 364 291.214 366.376 289.301 367.613ZM217.875 386C216.51 387.114 216.51 387.114 215.117 388.25C214.418 388.828 213.72 389.405 213 390C213.602 393.734 214.668 396.7 216.371 400.07C216.859 401.041 217.346 402.012 217.849 403.012C218.635 404.553 218.635 404.553 219.437 406.125C219.971 407.181 220.504 408.236 221.054 409.324C225.928 418.94 230.929 428.487 236 438C241.373 435.769 244.003 431.232 247.375 426.688C248.041 425.832 248.708 424.977 249.394 424.096C250.324 422.848 250.324 422.848 251.273 421.574C251.845 420.817 252.416 420.06 253.005 419.28C254.279 416.995 254.279 416.995 253.345 414.418C252.112 412.202 250.956 410.55 249.207 408.73C248.662 408.156 248.118 407.581 247.557 406.989C246.981 406.394 246.406 405.8 245.812 405.188C244.628 403.94 243.444 402.691 242.262 401.441C241.695 400.846 241.128 400.251 240.544 399.637C236.922 395.797 233.498 391.779 230.098 387.742C229.152 386.632 229.152 386.632 228.187 385.5C227.624 384.83 227.061 384.159 226.48 383.469C223.165 380.179 220.801 383.599 217.875 386ZM303.933 384.02C303.11 384.941 302.286 385.863 301.437 386.813C300.993 387.309 300.548 387.805 300.09 388.316C296.365 392.506 292.836 396.844 289.316 401.207C285.378 405.956 281.193 410.475 277 415C280.085 420.75 283.742 425.797 287.75 430.938C288.352 431.717 288.954 432.496 289.574 433.299C291.045 435.202 292.521 437.103 294 439C296.514 435.87 298.295 432.641 300.074 429.047C300.656 427.877 301.238 426.707 301.837 425.501C302.454 424.251 303.071 423 303.687 421.75C304.317 420.481 304.946 419.213 305.577 417.944C306.818 415.444 308.058 412.943 309.295 410.441C311.476 406.038 313.674 401.643 315.875 397.25C316.497 396.005 317.12 394.761 317.742 393.516C318.365 392.27 318.365 392.27 319 391C317.213 389.494 315.42 387.995 313.625 386.5C312.627 385.665 311.629 384.829 310.601 383.969C307.105 381.301 307.105 381.301 303.933 384.02ZM327 399C328 401 328 401 328 401L327 399ZM186.014 402.434C185.214 402.748 184.415 403.063 183.591 403.387C182.726 403.733 181.86 404.08 180.969 404.438C179.611 404.975 179.611 404.975 178.226 405.523C176.298 406.288 174.371 407.055 172.446 407.824C169.569 408.973 166.689 410.114 163.808 411.254C154.676 414.877 145.563 418.551 136.488 422.316C135.722 422.63 134.955 422.944 134.166 423.267C124.39 427.361 115.535 433.014 111 443C106.712 460.151 109 478.321 109 496C139.36 496 169.72 496 201 496C200.296 482.425 200.296 482.425 199.244 468.888C199.175 468.135 199.107 467.381 199.036 466.604C198.818 464.202 198.594 461.8 198.371 459.398C198.215 457.698 198.06 455.997 197.904 454.297C197.501 449.887 197.094 445.479 196.686 441.07C196.268 436.544 195.854 432.018 195.439 427.492C194.63 418.661 193.816 409.83 193 401C190.068 401 188.678 401.376 186.014 402.434ZM339 401C336.896 403.103 337.398 407.509 337.152 410.419C337.074 411.302 336.996 412.185 336.915 413.095C336.656 416.029 336.404 418.964 336.152 421.898C335.975 423.93 335.797 425.962 335.618 427.993C335.245 432.259 334.875 436.524 334.506 440.79C334.034 446.264 333.557 451.737 333.077 457.211C332.621 462.419 332.168 467.627 331.715 472.836C331.628 473.834 331.541 474.832 331.451 475.861C331.205 478.681 330.962 481.501 330.718 484.322C330.645 485.16 330.572 485.999 330.496 486.863C330.234 489.919 330 492.931 330 496C360.69 496 391.38 496 423 496C425.547 463.922 425.547 463.922 414.457 434.102C403.386 423.3 385.619 418.252 371.524 412.816C368.408 411.614 365.296 410.4 362.185 409.184C360.185 408.406 358.184 407.628 356.183 406.852C355.264 406.493 354.344 406.135 353.396 405.766C348.641 403.935 343.926 402.306 339 401ZM204 400C203.751 409.009 204.684 417.919 205.496 426.879C205.651 428.618 205.805 430.357 205.96 432.096C206.283 435.728 206.608 439.36 206.936 442.992C207.354 447.63 207.768 452.269 208.18 456.908C208.498 460.495 208.819 464.082 209.14 467.669C209.293 469.379 209.445 471.089 209.598 472.799C209.812 475.194 210.027 477.588 210.244 479.983C210.306 480.679 210.367 481.374 210.431 482.091C210.855 486.748 211.419 491.354 212 496C247.31 496 282.62 496 319 496C320.164 486.691 321.32 477.439 322.141 468.102C322.201 467.425 322.261 466.748 322.323 466.051C322.384 465.358 322.445 464.664 322.508 463.949C322.639 462.474 322.771 460.999 322.903 459.523C323.175 456.464 323.445 453.404 323.714 450.345C324.056 446.453 324.406 442.563 324.757 438.673C325.029 435.639 325.298 432.604 325.565 429.569C325.692 428.135 325.82 426.701 325.95 425.267C326.683 417.156 327.191 409.146 327 401C325.023 403.537 323.358 406.025 321.903 408.891C321.519 409.643 321.135 410.394 320.739 411.169C320.129 412.375 320.129 412.375 319.508 413.605C319.08 414.444 318.652 415.283 318.211 416.147C316.846 418.825 315.485 421.506 314.125 424.188C312.771 426.851 311.416 429.513 310.06 432.175C309.218 433.828 308.377 435.482 307.539 437.137C299.952 452.048 299.952 452.048 298 454C295.219 454.395 295.219 454.395 292 454C289.719 451.824 289.719 451.824 287.5 448.688C287.09 448.125 286.681 447.563 286.259 446.983C284.82 445.002 283.41 443.002 282 441C280.175 438.44 278.342 435.886 276.498 433.339C275.261 431.63 274.036 429.912 272.822 428.186C272.254 427.398 271.686 426.609 271.101 425.797C270.6 425.089 270.098 424.381 269.58 423.651C267.761 421.751 266.568 421.374 264 421C263.628 421.508 263.256 422.015 262.873 422.538C242.031 450.969 242.031 450.969 239 454C237 454.041 234.999 454.043 233 454C227.164 442.96 221.375 431.897 215.625 420.813C215.03 419.667 214.436 418.522 213.824 417.343C210.839 411.583 207.881 405.812 205 400C204.67 400 204.34 400 204 400Z" fill="#E5C667"/>
<path d="M76.9995 138C78.6412 138.12 78.6412 138.12 80.3159 138.242C98.6548 140.116 116.08 147.494 128 162C139.2 178.321 140.698 195.273 138.609 214.617C135.761 227.798 128.051 239.314 120.237 250.037C113.804 258.9 110.092 266.261 109.625 277.25C109.222 284.273 108.839 290.234 103.562 295.375C97.8457 299 97.8457 299 93.9995 299C94.1233 299.846 94.247 300.691 94.3745 301.562C93.8582 306.296 91.5167 308.894 87.9995 312C83.0155 313.661 77.843 313.226 72.6245 313.25C70.9191 313.281 70.9191 313.281 69.1792 313.312C67.5318 313.32 67.5318 313.32 65.8511 313.328C64.849 313.337 63.8469 313.347 62.8145 313.356C58.3812 312.795 55.7934 310.794 52.687 307.688C50.699 304.521 50.6581 302.671 50.9995 299C50.1333 298.938 49.267 298.876 48.3745 298.812C44.3616 297.846 41.5612 296.2 38.9995 293C36.3566 287.883 35.6826 284.148 35.6245 278.312C35.1383 265.436 29.2255 256.367 21.9995 246C8.83723 226.747 3.16849 208.384 6.28811 184.82C9.0056 170.988 17.7371 158.993 28.9722 150.844C43.2796 141.526 59.853 136.722 76.9995 138ZM24.98 170.238C16.3468 182.277 16.0281 195.776 16.9995 210C19.1328 222.671 26.4282 232.799 33.6245 243.125C40.11 252.441 44.2969 260.905 46.9995 272C53.5995 272 60.1995 272 66.9995 272C67.1883 267.436 67.3272 262.879 67.437 258.312C67.4957 257.019 67.5543 255.725 67.6148 254.393C68.0228 247.871 68.0228 247.871 65.5244 242.155C63.7367 240.94 61.9179 239.988 59.9995 239C54.5226 232.267 51.5426 224.068 50.6245 215.5C50.8102 214.262 50.8102 214.262 50.9995 213C53.9995 211 53.9995 211 56.687 211.375C57.4502 211.581 58.2133 211.787 58.9995 212C59.2374 212.801 59.2374 212.801 59.48 213.617C61.4001 219.749 64.0019 225.325 66.9995 231C68.8499 227.658 69.8053 224.301 70.812 220.625C72.4234 215.254 73.9381 211.848 77.9995 208C81.4396 206.28 85.2375 206.489 88.9995 207C91.7285 209.473 92.771 212.201 93.2378 215.875C93.5399 224.524 90.6526 233.378 84.9995 240C82.6895 241.32 80.3795 242.64 77.9995 244C77.9995 253.24 77.9995 262.48 77.9995 272C84.5995 272 91.1995 272 97.9995 272C98.6183 269.69 99.237 267.38 99.8745 265C103.254 253.541 109.938 244.252 116.812 234.625C126.833 220.501 129.528 206.058 128 189C125.732 176.543 118.155 166.344 108 159C98.3809 153.197 88.1755 149.901 76.9995 149C76.3627 148.947 75.7259 148.894 75.0699 148.84C55.7094 148 37.6008 155.652 24.98 170.238ZM80.9995 222C81.9995 224 81.9995 224 81.9995 224L80.9995 222ZM79.9995 225C80.9995 227 80.9995 227 80.9995 227L79.9995 225ZM46.9995 282C48.3352 286.945 48.3352 286.945 50.9995 288C52.3668 288.109 53.7389 288.159 55.1104 288.177C56.3821 288.196 56.3821 288.196 57.6796 288.216C58.5973 288.223 59.515 288.231 60.4605 288.238C61.4026 288.246 62.3447 288.254 63.3154 288.263C65.311 288.277 67.3066 288.287 69.3023 288.295C72.3555 288.312 75.4076 288.356 78.4605 288.4C80.398 288.411 82.3355 288.419 84.273 288.426C85.6435 288.452 85.6435 288.452 87.0416 288.479C92.1797 288.501 92.1797 288.501 96.6075 286.098C98.1838 284.142 98.1838 284.142 97.9995 282C81.1695 282 64.3395 282 46.9995 282ZM61.9995 299C62.3295 299.99 62.6595 300.98 62.9995 302C69.2695 302 75.5395 302 81.9995 302C82.3295 301.01 82.6595 300.02 82.9995 299C76.0695 299 69.1395 299 61.9995 299Z" fill="#E5C667"/>
<path d="M436.957 143.934C441.138 145.399 441.744 147.12 443.688 151.062C444.008 151.702 444.328 152.342 444.658 153.001C445.803 155.32 446.904 157.657 448 160C448.473 161 448.945 161.999 449.432 163.029C451.946 168.365 454.432 173.713 456.875 179.082C457.285 179.982 457.695 180.881 458.117 181.808C459 184 459 184 459 186C459.751 186.05 460.503 186.099 461.277 186.151C469.573 186.74 477.813 187.616 486.061 188.675C488.157 188.942 490.254 189.196 492.352 189.451C493.695 189.622 495.039 189.793 496.383 189.965C498.183 190.191 498.183 190.191 500.02 190.422C503 191 503 191 506 193C506.531 196.25 506.531 196.25 506 200C504.203 202.348 502.659 204.06 500.5 206C499.951 206.52 499.402 207.04 498.837 207.575C495.272 210.927 491.608 214.172 487.879 217.34C485.033 219.855 482.403 222.574 479.762 225.301C478 227 478 227 475 229C475.46 235.009 476.284 240.854 477.445 246.766C477.58 247.453 477.714 248.14 477.853 248.848C478.417 251.708 478.986 254.568 479.567 257.425C479.994 259.537 480.408 261.651 480.82 263.766C481.071 265.011 481.321 266.257 481.579 267.54C482.002 271.02 481.905 273.621 481 277C478.188 278.406 476.124 278.219 473 278C470.306 276.918 470.306 276.918 467.586 275.402C466.584 274.85 465.581 274.298 464.549 273.729C463.501 273.138 462.454 272.547 461.375 271.938C460.294 271.351 459.213 270.764 458.1 270.159C449.208 265.294 449.208 265.294 445.32 262.297C442.466 260.162 440.484 258.767 437 258C431.934 259.371 427.828 261.778 423.393 264.534C419.765 266.757 416.05 268.815 412.326 270.87C410.387 271.941 408.457 273.029 406.538 274.136C397.992 278.945 397.992 278.945 393 278C391 276 391 276 390.775 272.407C390.89 267.979 391.663 263.802 392.602 259.484C392.93 257.888 393.258 256.292 393.586 254.695C394.106 252.21 394.63 249.726 395.16 247.243C395.673 244.826 396.169 242.406 396.664 239.984C396.828 239.243 396.991 238.501 397.159 237.737C397.764 234.745 398.187 232.548 397.188 229.619C393.016 223.931 387.336 219.364 382.012 214.793C379.154 212.246 376.497 209.516 373.828 206.773C371.918 204.827 371.918 204.827 369.062 202.938C366.177 200.227 366.222 197.846 366 194C369.755 190.337 373.803 190.199 378.781 189.648C379.632 189.544 380.482 189.44 381.359 189.332C384.071 189.002 386.785 188.688 389.5 188.375C392.214 188.052 394.928 187.725 397.641 187.396C399.328 187.193 401.016 186.994 402.703 186.799C403.471 186.708 404.238 186.618 405.029 186.525C405.701 186.447 406.373 186.37 407.065 186.29C407.704 186.194 408.342 186.099 409 186C409.699 185.897 410.399 185.795 411.119 185.689C413.102 185.158 413.102 185.158 414.144 183.457C414.446 182.794 414.748 182.13 415.059 181.446C415.409 180.695 415.76 179.944 416.121 179.17C416.484 178.353 416.848 177.537 417.223 176.695C417.803 175.443 417.803 175.443 418.395 174.165C419.631 171.491 420.848 168.809 422.062 166.125C423.283 163.45 424.508 160.776 425.741 158.106C426.508 156.444 427.267 154.778 428.018 153.108C428.366 152.351 428.713 151.593 429.071 150.813C429.372 150.148 429.673 149.482 429.983 148.797C431.886 145.434 432.997 144.023 436.957 143.934ZM436 163C435.342 164.393 435.342 164.393 434.671 165.814C433.041 169.258 431.4 172.697 429.756 176.135C429.046 177.623 428.339 179.113 427.635 180.604C426.623 182.748 425.599 184.886 424.574 187.023C424.262 187.691 423.949 188.359 423.627 189.047C422.027 192.355 421.127 193.915 418 196C415.554 196.443 413.172 196.792 410.707 197.07C410.001 197.156 409.295 197.242 408.568 197.331C406.317 197.603 404.065 197.864 401.812 198.125C400.284 198.308 398.756 198.491 397.229 198.676C393.487 199.126 389.744 199.565 386 200C385.684 203 385.684 203 387.469 204.797C388.474 205.764 388.474 205.764 389.5 206.75C390.596 207.808 390.596 207.808 391.715 208.887C393.801 210.816 395.915 212.701 398.062 214.562C398.713 215.132 399.364 215.702 400.035 216.289C401.363 217.445 402.705 218.586 404.059 219.711C404.699 220.281 405.34 220.85 406 221.438C406.577 221.931 407.155 222.425 407.75 222.934C411.655 229.39 407.867 239.491 406.438 246.312C405.95 248.64 405.469 250.97 404.996 253.301C404.781 254.323 404.567 255.346 404.345 256.4C403.792 259.108 403.792 259.108 405 262C405.767 261.586 406.533 261.173 407.323 260.747C410.178 259.207 413.033 257.667 415.889 256.128C417.123 255.463 418.356 254.798 419.59 254.132C421.367 253.174 423.144 252.216 424.922 251.258C425.99 250.682 427.058 250.106 428.159 249.512C429.097 249.013 430.034 248.514 431 248C431.682 247.582 432.364 247.164 433.067 246.734C435.783 245.703 437.239 246.139 440 247C442.067 247.978 444.1 249.027 446.105 250.125C447.253 250.749 448.401 251.373 449.584 252.016C450.785 252.677 451.986 253.338 453.188 254C454.4 254.662 455.613 255.324 456.826 255.984C459.041 257.192 461.254 258.403 463.466 259.617C464.964 260.435 466.473 261.236 468 262C467.609 253.647 466.037 245.594 464.284 237.439C462.399 228.238 462.399 228.238 464 224C466.108 221.442 468.506 219.301 471 217.125C471.677 216.515 472.354 215.905 473.051 215.277C475.023 213.505 477.01 211.751 479 210C480 209.105 480.999 208.21 481.996 207.312C483.987 205.529 485.986 203.757 488 202C487.67 201.34 487.34 200.68 487 200C484.649 199.547 482.383 199.221 480.008 198.965C479.306 198.881 478.604 198.798 477.881 198.712C475.63 198.445 473.378 198.191 471.125 197.938C468.88 197.679 466.635 197.417 464.39 197.153C462.992 196.989 461.593 196.828 460.193 196.672C457.307 196.339 454.767 195.922 452 195C450.406 192.272 450.406 192.272 448.715 188.664C448.413 188.029 448.111 187.394 447.8 186.739C446.836 184.706 445.887 182.666 444.938 180.625C443.982 178.593 443.024 176.562 442.064 174.532C441.192 172.686 440.328 170.837 439.465 168.987C438.043 165.922 438.043 165.922 436 163Z" fill="#E5C667"/>
<path d="M305 18.9999C305.709 19.5452 306.418 20.0904 307.148 20.6522C318.373 29.7909 325.778 43.76 328 57.9999C329.597 76.88 325.965 92.7409 314.746 108.082C303.849 120.918 288.856 128.999 272.066 130.844C254.139 132.24 236.723 126.543 222.945 114.887C209.889 102.224 203.13 86.1058 202.625 67.9999C203.12 50.2416 209.256 35.4191 222 22.9999C222.675 22.2922 223.351 21.5845 224.047 20.8554C245.75 -0.48094 282.092 0.775597 305 18.9999ZM232 28.9999C231.322 29.5967 230.644 30.1936 229.945 30.8085C220.276 39.8756 214.652 51.3674 213.84 64.6132C213.412 78.9563 217.856 91.72 226.93 102.836C236.524 112.864 249.185 119.026 263 120C277.613 120.141 290.51 115.594 301.441 105.816C312.135 94.7971 317.398 81.4324 317.371 66.2089C316.97 51.8457 310.298 38.8665 300 28.9999C280.446 12.1494 251.452 11.786 232 28.9999Z" fill="#E5C667"/>
<path d="M329.344 113.176C332.542 114.168 334.278 115.563 336.812 117.75C337.768 118.56 338.723 119.369 339.707 120.203C340.491 120.873 340.491 120.873 341.292 121.557C344.486 124.255 347.748 126.871 351 129.5C354.822 132.598 358.641 135.698 362.434 138.832C363.425 139.651 364.416 140.469 365.438 141.312C366.735 142.389 366.735 142.389 368.059 143.488C369.721 145.102 369.721 145.102 371 145C370.938 143.907 370.876 142.814 370.812 141.687C371 138 371 138 372.188 136.062C374.66 134.613 376.179 134.577 379 135C381.757 137.174 382.512 139.027 383.203 142.422C383.378 143.283 383.554 144.144 383.734 145.031C383.905 145.928 384.075 146.826 384.25 147.75C384.436 148.632 384.621 149.513 384.812 150.422C385.829 155.599 386.294 159.85 385 165C380.528 167.236 374.411 166.23 369.5 166.25C368.238 166.271 366.976 166.291 365.676 166.312C363.872 166.32 363.872 166.32 362.031 166.328C360.923 166.337 359.815 166.347 358.674 166.356C357.791 166.239 356.909 166.121 356 166C354 163 354 163 353.938 160C354.288 159.01 354.639 158.02 355 157C358.566 155.312 358.566 155.312 362 154C355.393 148.326 348.741 142.735 341.875 137.375C341.007 136.692 341.007 136.692 340.122 135.996C337.342 133.812 334.548 131.658 331.707 129.555C330.711 128.794 329.714 128.034 328.688 127.25C327.804 126.595 326.921 125.94 326.012 125.266C323.367 122.287 323.25 119.904 323 116C326.297 112.947 326.297 112.947 329.344 113.176Z" fill="#E5C667"/>
<path d="M179.688 112.813C180.854 112.814 180.854 112.814 182.045 112.815C187.102 112.852 192.026 113.051 197 114C199.775 118.162 198.778 121.299 198 126C197.801 127.249 197.603 128.498 197.398 129.785C197.164 131.128 196.927 132.471 196.688 133.813C196.464 135.077 196.241 136.342 196.012 137.645C194.93 141.233 193.977 142.769 191 145C187.608 144.839 186.417 144.417 184 142C183.73 139.312 183.913 136.709 184 134C183.224 134.667 182.448 135.333 181.648 136.02C175.16 141.565 168.59 146.973 161.847 152.206C161.301 152.631 160.754 153.055 160.191 153.492C159.661 153.902 159.13 154.311 158.583 154.733C157.495 155.604 156.432 156.507 155.391 157.435C151.377 161.012 151.377 161.012 147.188 160.875C144 160 144 160 143 159C142.586 155.766 142.586 155.766 143 152C144.871 149.849 146.39 148.422 148.625 146.75C149.493 146.06 149.493 146.06 150.379 145.355C152.238 143.883 154.118 142.442 156 141C157.258 140.01 158.515 139.018 159.77 138.024C162.107 136.173 164.453 134.335 166.809 132.508C169.932 130.074 172.971 127.55 176 125C174.886 124.897 173.773 124.794 172.625 124.688C170.831 124.347 170.831 124.347 169 124C167 121 167 121 167.188 117.938C168.929 111.641 174.241 112.729 179.688 112.813Z" fill="#E5C667"/>
<path d="M293 45C295 47 295 47 295.336 49.8644C294.941 53.5489 294.192 54.5702 291.623 57.1694C290.885 57.9298 290.147 58.6901 289.386 59.4735C288.577 60.2737 287.768 61.074 286.934 61.8984C285.694 63.1509 285.694 63.1509 284.428 64.4286C282.676 66.1892 280.916 67.9422 279.149 69.688C276.449 72.3636 273.786 75.0719 271.123 77.7852C269.416 79.4917 267.708 81.1962 265.996 82.8984C265.201 83.7108 264.406 84.5232 263.587 85.3602C257.971 90.8366 257.971 90.8366 253.077 91.6599C250 91 250 91 247.778 88.543C247.17 87.4357 246.563 86.3284 245.938 85.1875C245.61 84.6009 245.282 84.0143 244.944 83.4099C244.272 82.2027 243.611 80.9895 242.961 79.7705C242.065 78.119 241.097 76.5065 240.125 74.8984C239.568 73.9626 239.012 73.0267 238.438 72.0625C237.941 71.2285 237.445 70.3945 236.934 69.5352C235.741 66.2971 236.069 64.2884 237 61C240.067 59.4664 241.592 59.3445 245 60C247.433 62.7489 249.191 65.8183 251 69C251.619 69.9694 252.238 70.9388 252.875 71.9375C254 74 254 74 254 76C258.889 71.9663 263.399 67.6375 267.785 63.0664C268.821 61.9954 269.857 60.9244 270.893 59.8535C272.49 58.2003 274.081 56.5427 275.658 54.8694C277.205 53.2312 278.774 51.6164 280.348 50.0039C280.812 49.5009 281.275 48.9979 281.753 48.4796C285.373 44.8294 287.966 44.3265 293 45Z" fill="#E5C667"/>
<path d="M268.187 481.125C269.115 481.414 270.044 481.702 271 482C272.601 485.202 272.628 488.535 272 492C269.812 494.125 269.812 494.125 267 495C264.25 494.312 264.25 494.312 262 493C260.579 490.159 260.685 488.145 261 485C263.237 481.645 264.11 480.965 268.187 481.125Z" fill="#E5C667"/>
<path d="M267 444.75C270 445 270 445 272 447C272.266 449.094 272.266 449.094 272.25 451.5C272.255 452.294 272.26 453.088 272.266 453.906C272 456 272 456 270 458C267.062 458.375 267.062 458.375 264 458C262.062 456.438 262.062 456.438 261 454C261.455 445.212 261.455 445.212 267 444.75Z" fill="#E5C667"/>
</svg>
