<svg width="512" height="512" viewBox="0 0 512 512" fill="none" xmlns="http://www.w3.org/2000/svg">
<path d="M371.172 25.8246C380.814 35.9822 381.351 49.6079 382.98 62.8129C383.24 64.8342 383.501 66.8554 383.763 68.8764C384.447 74.1677 385.115 79.4609 385.779 84.7546C386.849 93.2556 387.943 101.753 389.035 110.251C389.414 113.219 389.787 116.187 390.16 119.156C390.389 120.963 390.619 122.771 390.848 124.579C390.951 125.407 391.053 126.235 391.159 127.088C391.618 131.171 391.618 131.171 393 135C393.706 133.918 393.706 133.918 394.427 132.814C398.889 125.982 403.362 119.156 407.845 112.337C410.598 108.146 413.336 103.945 416.062 99.7354C417.817 97.031 419.583 94.3339 421.351 91.6382C422.191 90.3528 423.026 89.0644 423.856 87.7728C430.078 78.1016 436.754 68.597 448.063 64.6215C458.117 62.4957 469.21 62.8431 478.105 68.2895C486.972 74.5109 492.434 82.001 494.535 92.7348C496.173 106.064 491.315 115.832 484.105 126.629C483.409 127.684 483.409 127.684 482.699 128.76C481.199 131.03 479.693 133.297 478.188 135.563C477.142 137.144 476.097 138.725 475.053 140.306C472.982 143.44 470.911 146.574 468.837 149.706C465.201 155.205 461.596 160.724 458 166.25C457.415 167.149 456.829 168.048 456.226 168.975C455.069 170.751 453.912 172.528 452.755 174.306C450.269 178.122 447.78 181.937 445.291 185.751C439.498 194.63 433.71 203.511 427.94 212.405C424.938 217.031 421.921 221.647 418.891 226.254C418.202 227.304 417.513 228.354 416.803 229.436C415.458 231.485 414.11 233.532 412.76 235.577C412.153 236.502 411.547 237.426 410.922 238.379C410.381 239.2 409.841 240.02 409.284 240.866C406.897 244.834 407.008 247.38 407.601 251.857C407.76 253.079 407.918 254.302 408.081 255.561C408.264 256.918 408.447 258.275 408.631 259.632C408.818 261.06 409.005 262.487 409.192 263.915C409.595 266.991 410.002 270.067 410.413 273.142C411.063 278.008 411.703 282.875 412.341 287.742C413.583 297.2 414.835 306.657 416.088 316.114C417.681 328.137 419.268 340.16 420.848 352.185C421.483 357.02 422.123 361.854 422.767 366.688C423.168 369.701 423.564 372.715 423.96 375.729C424.144 377.123 424.329 378.516 424.516 379.91C424.772 381.818 425.022 383.727 425.272 385.636C425.484 387.236 425.484 387.236 425.701 388.867C426.585 398.115 425.371 406.703 420.305 414.664C412.59 424.004 402.748 427.093 391.046 428.307C390.006 428.396 388.966 428.486 387.895 428.579C371.825 430.011 357.057 433.428 341.672 438.18C339.621 438.803 337.57 439.426 335.519 440.047C331.204 441.355 326.892 442.67 322.581 443.99C316.1 445.973 309.613 447.933 303.124 449.887C294.384 452.52 285.645 455.157 276.909 457.801C267.737 460.576 258.563 463.347 249.388 466.114C248.231 466.463 247.074 466.812 245.882 467.171C241.28 468.559 236.679 469.946 232.078 471.333C219.935 474.995 207.796 478.666 195.668 482.374C190.594 483.924 185.517 485.461 180.438 486.995C178.265 487.654 176.093 488.32 173.923 488.992C148.718 496.795 148.718 496.795 135.605 491.383C125.398 485.966 120.673 477.558 117.212 466.828C116.637 464.924 116.072 463.018 115.516 461.11C115.03 459.488 115.03 459.488 114.534 457.833C113.626 454.793 112.726 451.751 111.829 448.708C110.827 445.319 109.814 441.933 108.802 438.547C107.184 433.132 105.57 427.717 103.96 422.301C100.171 409.558 96.3555 396.824 92.5352 384.09C92.0424 382.448 92.0424 382.448 91.5397 380.772C90.1795 376.239 88.8192 371.705 87.4586 367.172C85.3473 360.137 83.2371 353.102 81.1278 346.066C71.8157 315.006 62.4696 283.955 53.09 252.915C50.7139 245.052 48.3393 237.188 45.9659 229.323C45.6407 228.246 45.3155 227.169 44.9805 226.059C43.7031 221.826 42.4259 217.594 41.1487 213.362C37.8625 202.473 34.5729 191.584 31.2699 180.7C29.3902 174.505 27.5189 168.307 25.6516 162.108C24.9398 159.75 24.2248 157.393 23.5061 155.038C22.5595 151.934 21.624 148.827 20.6914 145.719C20.4265 144.861 20.1615 144.003 19.8886 143.119C16.8762 132.973 15.7387 123.229 20.1914 113.36C28.2582 98.6769 43.8939 95.436 59.0117 91.0121C60.7749 90.49 60.7749 90.49 62.5737 89.9574C65.0291 89.2315 67.4853 88.5082 69.9422 87.7873C73.7179 86.679 77.4909 85.562 81.2637 84.4438C83.6587 83.7369 86.0539 83.0305 88.4492 82.3246C89.5793 81.9903 90.7094 81.6561 91.8737 81.3116C92.9127 81.0074 93.9518 80.7032 95.0222 80.3898C95.9379 80.1207 96.8536 79.8515 97.797 79.5742C100 79.0004 100 79.0004 102 79.0004C101.67 78.0104 101.34 77.0204 101 76.0004C101.681 67.0206 105.164 59.3822 111.688 53.1879C120.741 46.0746 131.279 44.9262 142.378 43.5302C144.019 43.3139 145.66 43.0964 147.301 42.8778C151.744 42.2894 156.189 41.7173 160.635 41.1481C165.342 40.5425 170.047 39.9218 174.752 39.3028C183.705 38.1272 192.66 36.9651 201.616 35.8078C211.626 34.5136 221.635 33.2048 231.644 31.8945C244.146 30.2577 256.648 28.6235 269.152 27.0066C270.07 26.8879 270.988 26.7692 271.933 26.6469C272.841 26.5295 273.749 26.4121 274.685 26.2911C276.489 26.0578 278.292 25.8245 280.096 25.5912C280.973 25.4778 281.85 25.3643 282.754 25.2474C293.659 23.8363 304.558 22.3934 315.451 20.9018C317.636 20.6054 319.82 20.3092 322.005 20.0132C325.746 19.5062 329.485 18.985 333.223 18.4537C347.357 16.5036 359.627 16.1277 371.172 25.8246ZM322.205 36.4472C320.2 36.7105 318.195 36.9733 316.19 37.2355C310.766 37.9466 305.343 38.6658 299.92 39.3866C294.233 40.1414 288.545 40.8892 282.858 41.638C273.308 42.8963 263.758 44.1596 254.21 45.4262C243.185 46.8885 232.159 48.3439 221.133 49.7954C210.507 51.1943 199.882 52.597 189.257 54.0018C184.744 54.5985 180.23 55.194 175.717 55.7887C170.398 56.4898 165.079 57.1943 159.76 57.9014C157.814 58.1597 155.867 58.4169 153.919 58.6729C135.21 59.8279 135.21 59.8279 120 69.0004C115.2 77.0434 118.436 88.8696 119.619 97.6365C119.796 98.984 119.971 100.332 120.147 101.679C120.627 105.355 121.116 109.029 121.606 112.703C122.135 116.676 122.655 120.651 123.177 124.625C124.081 131.506 124.99 138.385 125.902 145.264C127.224 155.226 128.538 165.189 129.85 175.152C131.981 191.341 134.12 207.529 136.262 223.716C138.337 239.398 140.409 255.08 142.478 270.764C142.605 271.729 142.732 272.694 142.863 273.689C143.502 278.534 144.141 283.38 144.78 288.225C148.687 317.851 152.597 347.476 156.514 377.1C156.821 379.42 157.128 381.739 157.434 384.059C157.911 387.66 158.387 391.261 158.863 394.862C159.114 396.761 159.365 398.659 159.616 400.557C159.922 402.867 160.229 405.176 160.538 407.485C160.869 410.005 161.189 412.524 161.497 415.047C161.582 415.722 161.666 416.397 161.753 417.093C161.99 418.981 162.221 420.87 162.451 422.759C163.418 428.468 165.307 432.39 169.563 436.438C176.523 440.9 185.328 439.002 193.128 437.958C194.002 437.845 194.875 437.733 195.774 437.618C198.677 437.243 201.578 436.86 204.479 436.478C206.569 436.206 208.659 435.935 210.75 435.665C216.409 434.931 222.068 434.189 227.726 433.445C232.453 432.825 237.18 432.207 241.907 431.59C253.056 430.133 264.205 428.669 275.353 427.202C286.853 425.689 298.354 424.188 309.856 422.693C319.738 421.409 329.618 420.115 339.498 418.816C345.396 418.04 351.294 417.267 357.194 416.503C362.738 415.785 368.281 415.056 373.823 414.319C375.856 414.05 377.89 413.785 379.925 413.525C382.702 413.168 385.478 412.798 388.253 412.424C389.058 412.324 389.863 412.224 390.693 412.121C396.591 411.305 402.029 409.885 405.813 404.938C411.733 396.987 408.812 385.955 407.563 376.66C407.41 375.48 407.257 374.3 407.1 373.084C406.684 369.883 406.261 366.684 405.835 363.485C405.479 360.808 405.128 358.13 404.777 355.453C403.949 349.144 403.114 342.836 402.274 336.529C401.407 330.021 400.553 323.511 399.704 317.001C398.974 311.4 398.236 305.8 397.493 300.2C397.049 296.86 396.609 293.52 396.175 290.179C395.69 286.467 395.195 282.757 394.696 279.047C394.553 277.936 394.411 276.826 394.264 275.681C394.127 274.678 393.99 273.674 393.848 272.64C393.674 271.325 393.674 271.325 393.496 269.982C393.332 269.328 393.169 268.674 393 268C392.34 267.67 391.68 267.34 391 267C390.628 267.588 390.257 268.176 389.874 268.782C383.102 279.482 376.322 290.168 369.238 300.664C367.748 302.873 366.297 305.095 364.855 307.336C358.911 316.543 352.392 322.773 343.891 329.614C341.008 331.994 338.249 334.467 335.5 337C330.177 341.896 324.644 346.482 319 351C318.179 351.717 317.358 352.434 316.512 353.172C311.951 356.492 306.33 357.226 300.754 356.848C295.835 355.841 291.417 353.72 288 350C284.367 343.678 282.94 337.709 284.569 330.474C285.331 327.654 286.152 324.858 287 322.063C287.286 321.093 287.572 320.123 287.867 319.123C288.57 316.746 289.283 314.373 290 312C279.578 312.576 269.302 313.766 258.962 315.143C256.187 315.513 253.412 315.877 250.636 316.24C244.757 317.01 238.878 317.786 233 318.563C226.154 319.468 219.307 320.37 212.46 321.265C209.733 321.623 207.007 321.986 204.28 322.349C202.607 322.568 200.935 322.788 199.262 323.007C198.511 323.108 197.759 323.209 196.985 323.313C186.041 324.731 186.041 324.731 182.063 321.938C180 319 180 319 179.875 315.375C181 312 181 312 182.944 310.39C187.216 308.447 191.387 307.972 196.019 307.391C197.025 307.255 198.03 307.12 199.066 306.98C202.385 306.536 205.706 306.108 209.027 305.68C211.338 305.374 213.648 305.067 215.958 304.759C222.039 303.95 228.121 303.155 234.204 302.363C240.386 301.556 246.567 300.737 252.748 299.918C259.696 298.999 266.643 298.08 273.592 297.171C274.65 297.033 275.709 296.894 276.799 296.751C278.769 296.493 280.739 296.236 282.709 295.98C287.155 295.397 291.582 294.776 296 294C296.306 292.898 296.611 291.796 296.926 290.661C300.182 279.606 304.77 270.773 311.354 261.365C313.87 257.75 316.319 254.092 318.768 250.431C320.032 248.543 321.302 246.658 322.58 244.779C323.443 243.498 323.443 243.498 324.324 242.192C324.841 241.431 325.357 240.67 325.889 239.885C327.169 238.078 327.169 238.078 327 236C326.047 236.129 326.047 236.129 325.075 236.259C318.408 237.156 311.739 238.048 305.07 238.936C302.588 239.268 300.106 239.6 297.625 239.934C294.038 240.417 290.451 240.895 286.863 241.372C285.771 241.519 284.679 241.667 283.554 241.82C278.027 242.55 272.495 243.199 266.946 243.727C265.38 243.879 265.38 243.879 263.782 244.034C260.861 243.999 259.402 243.623 257 242C255.475 238.951 255.764 236.358 256 233C258.078 230.253 259.866 229.531 263.203 228.946C264.095 228.79 264.987 228.633 265.906 228.472C271.448 227.627 276.999 226.868 282.559 226.153C284.792 225.866 287.024 225.574 289.255 225.282C293.982 224.663 298.71 224.05 303.438 223.438C308.944 222.724 314.451 222.008 319.956 221.287C322.154 221 324.351 220.717 326.549 220.435C327.891 220.259 329.234 220.084 330.576 219.908C331.747 219.757 332.918 219.605 334.125 219.449C338.546 218.812 338.546 218.812 341.651 215.83C342.242 214.883 342.833 213.937 343.441 212.961C344.102 211.913 344.763 210.866 345.444 209.786C345.79 209.229 346.136 208.672 346.492 208.099C347.93 205.784 349.385 203.482 350.84 201.178C351.563 200.032 352.285 198.886 353.006 197.739C355.692 193.471 358.438 189.249 361.25 185.063C361.626 184.497 362.003 183.931 362.39 183.347C364.633 179.985 366.936 176.672 369.273 173.375C369.83 172.576 370.387 171.777 370.96 170.953C372.039 169.404 373.133 167.865 374.243 166.339C374.733 165.63 375.222 164.922 375.727 164.192C376.166 163.575 376.605 162.958 377.057 162.323C379.575 156.121 377.637 148.127 376.762 141.672C376.631 140.67 376.499 139.667 376.363 138.634C375.929 135.339 375.486 132.044 375.043 128.75C374.736 126.449 374.429 124.148 374.123 121.847C373.48 117.032 372.833 112.217 372.183 107.403C371.353 101.244 370.536 95.0837 369.723 88.9227C369.093 84.1725 368.456 79.4236 367.815 74.6749C367.51 72.4044 367.209 70.1334 366.91 67.8621C366.491 64.683 366.06 61.5057 365.626 58.3285C365.506 57.3974 365.386 56.4663 365.262 55.5069C363.847 45.2534 363.847 45.2534 358 37.0629C348.379 30.4485 333.117 34.9878 322.205 36.4472ZM445.315 86.2194C444.803 87.025 444.29 87.8306 443.762 88.6606C443.239 89.4728 442.717 90.285 442.178 91.1218C441.595 92.0517 441.595 92.0517 441 93.0004C441.696 93.4642 442.391 93.9279 443.108 94.4057C465 109 465 109 468.24 111.244C470.736 113.179 470.736 113.179 473 113C477.256 106.708 479.184 101.627 478 94.0004C475.92 88.197 472.354 84.5519 467.25 81.1879C459.398 78.3189 450.626 79.2248 445.315 86.2194ZM94.5005 97.4975C93.399 97.8249 92.2975 98.1524 91.1627 98.4897C89.9772 98.849 88.7917 99.2084 87.5703 99.5785C86.3473 99.9464 85.1242 100.314 83.864 100.693C81.2758 101.474 78.6884 102.257 76.1021 103.044C72.8012 104.047 69.4963 105.037 66.1901 106.022C63.0224 106.969 59.8592 107.931 56.6953 108.891C54.9232 109.418 54.9232 109.418 53.1153 109.955C45.9977 112.14 40.6422 114.011 35.625 119.688C32.3808 126.301 33.9396 133.146 36.0784 139.925C36.3024 140.67 36.5264 141.415 36.7572 142.183C37.5048 144.66 38.27 147.131 39.0352 149.602C39.5785 151.389 40.1206 153.177 40.6616 154.965C41.8312 158.822 43.0085 162.676 44.1919 166.529C46.0961 172.729 47.983 178.933 49.8672 185.139C51.8595 191.698 53.8531 198.256 55.8526 204.812C60.5253 220.134 65.1653 235.465 69.7774 250.805C70.0958 251.864 70.4143 252.923 70.7424 254.015C72.3513 259.367 73.9596 264.719 75.5677 270.071C78.4771 279.753 81.3921 289.434 84.3065 299.115C85.9193 304.473 87.5317 309.83 89.1441 315.187C89.4622 316.245 89.7804 317.302 90.1082 318.391C92.6823 326.944 95.2556 335.498 97.8287 344.051C100.343 352.407 102.857 360.763 105.371 369.119C106.832 373.973 108.292 378.827 109.752 383.681C112.669 393.381 115.591 403.081 118.52 412.778C120.301 418.675 122.072 424.575 123.839 430.476C125.117 434.741 126.402 439.005 127.687 443.268C128.305 445.319 128.919 447.371 129.532 449.424C130.381 452.271 131.239 455.115 132.099 457.959C132.349 458.803 132.599 459.647 132.856 460.517C135.058 467.741 137.603 472.572 144 477C151.167 479.19 157.618 476.425 164.535 474.286C165.899 473.875 167.263 473.466 168.627 473.058C171.555 472.181 174.479 471.294 177.402 470.402C182.054 468.981 186.714 467.584 191.375 466.191C200.244 463.538 209.107 460.863 217.969 458.184C222.167 456.915 226.366 455.648 230.564 454.381C238.71 451.923 246.855 449.462 255 447C255 446.67 255 446.34 255 446C246.057 446.395 237.249 447.433 228.383 448.629C226.661 448.861 226.661 448.861 224.905 449.097C220.105 449.746 215.307 450.399 210.509 451.065C169.732 456.7 169.732 456.7 157.688 447.75C147.41 437.234 146.812 422.92 145.007 408.903C144.827 407.542 144.647 406.181 144.467 404.82C143.978 401.124 143.497 397.427 143.016 393.73C142.495 389.727 141.967 385.725 141.44 381.722C140.529 374.802 139.623 367.882 138.719 360.961C137.413 350.955 136.1 340.95 134.786 330.944C132.654 314.709 130.526 298.472 128.402 282.235C126.34 266.47 124.275 250.705 122.207 234.941C122.015 233.481 122.015 233.481 121.82 231.992C121.18 227.11 120.539 222.228 119.898 217.346C114.592 176.899 109.293 136.45 104 96.0004C100.3 96.0004 97.9902 96.4521 94.5005 97.4975ZM431 107C429.35 109.97 427.7 112.94 426 116C426.619 116.393 427.239 116.786 427.877 117.19C430.731 119.001 433.584 120.813 436.438 122.625C437.411 123.243 438.385 123.86 439.389 124.497C445.309 128.259 451.184 132.079 457 136C459.414 133.104 461.386 130.403 463 127C462.304 126.537 461.609 126.073 460.892 125.595C439 111 439 111 435.76 108.757C433.264 106.821 433.264 106.821 431 107ZM416 130C414.619 131.539 414.619 131.539 413.434 133.629C412.954 134.409 412.474 135.188 411.979 135.992C411.216 137.264 411.216 137.264 410.438 138.563C409.351 140.331 408.262 142.098 407.172 143.864C406.632 144.742 406.093 145.621 405.537 146.526C403.492 149.818 401.357 153.04 399.188 156.25C395.008 162.465 390.9 168.725 386.813 175C386.173 175.982 385.534 176.964 384.875 177.975C383.566 179.986 382.256 181.998 380.947 184.01C377.842 188.779 374.734 193.546 371.625 198.313C371.012 199.253 370.399 200.194 369.767 201.163C364.301 209.543 358.825 217.918 353.347 226.291C349.897 231.566 346.45 236.843 343.012 242.125C342.374 243.105 341.736 244.085 341.078 245.095C339.833 247.008 338.59 248.922 337.348 250.838C334.407 255.362 331.431 259.854 328.363 264.293C327.511 265.536 327.511 265.536 326.642 266.803C325.577 268.35 324.502 269.889 323.415 271.42C322.948 272.1 322.481 272.78 322 273.481C321.588 274.068 321.175 274.654 320.75 275.259C319.839 277.002 319.839 277.002 320.163 279.063C321.2 281.463 322.182 282.151 324.395 283.516C325.098 283.959 325.801 284.402 326.526 284.859C327.28 285.318 328.035 285.777 328.813 286.25C330.36 287.22 331.907 288.19 333.453 289.161C334.221 289.638 334.988 290.115 335.779 290.606C338.915 292.575 341.988 294.625 345.063 296.688C346.023 297.331 346.983 297.974 347.973 298.637C348.642 299.087 349.311 299.537 350 300C352.742 296.659 355.227 293.257 357.582 289.633C358.259 288.595 358.936 287.557 359.633 286.487C360.359 285.366 361.086 284.246 361.813 283.125C362.574 281.955 363.336 280.785 364.098 279.616C365.653 277.227 367.207 274.837 368.76 272.447C372 267.46 375.251 262.481 378.5 257.5C379.729 255.615 380.958 253.73 382.188 251.844C387.006 244.456 391.836 237.074 396.664 229.692C401.893 221.696 407.114 213.694 412.332 205.691C416.363 199.507 420.4 193.328 424.442 187.151C426.589 183.868 428.734 180.585 430.879 177.301C433.566 173.189 436.262 169.083 438.965 164.981C440.164 163.154 441.363 161.327 442.563 159.5C443.117 158.664 443.671 157.827 444.243 156.965C444.991 155.822 444.991 155.822 445.754 154.657C446.19 153.995 446.627 153.333 447.076 152.651C448.163 151.025 448.163 151.025 448 149C446.242 147.58 446.242 147.58 443.941 146.172C443.08 145.619 442.218 145.066 441.33 144.497C439.96 143.632 439.96 143.632 438.563 142.75C436.793 141.621 435.023 140.491 433.254 139.36C431.943 138.529 431.943 138.529 430.606 137.682C427.313 135.557 424.096 133.33 420.89 131.076C418.928 129.753 418.928 129.753 416 130ZM312 295C311.3 296.912 310.615 298.83 309.938 300.75C309.555 301.818 309.172 302.885 308.777 303.985C307.761 307.64 307.761 307.64 309 311C311.594 312.628 311.594 312.628 314.75 313.938C319.447 316.135 322.714 318.01 326 322C329.187 320.565 331.622 318.798 334.25 316.5C334.956 315.892 335.663 315.284 336.391 314.657C338.232 313.146 338.232 313.146 338 311C335.737 309.188 335.737 309.188 332.82 307.305C331.747 306.59 330.673 305.874 329.566 305.137C329.002 304.766 328.438 304.396 327.856 304.014C326.134 302.881 324.42 301.737 322.707 300.59C317.733 296.727 317.733 296.727 312 295ZM302 326C301.414 327.743 300.857 329.495 300.313 331.25C299.999 332.225 299.686 333.199 299.363 334.204C298.699 337.052 298.699 337.052 300.418 339.36C300.94 339.901 301.462 340.443 302 341C307.352 340.676 310.283 337.503 314 334C310.29 328.997 310.29 328.997 305 326C304.01 326 303.02 326 302 326Z" fill="#E5C667"/>
<path d="M345 150.062C347.506 153.744 347.715 155.629 347 160C344.776 163.024 343.333 163.911 339.679 164.881C338.265 165.091 336.847 165.28 335.429 165.456C334.614 165.571 333.799 165.685 332.959 165.804C331.063 166.068 329.166 166.323 327.267 166.572C323.664 167.044 320.065 167.539 316.465 168.036C308.184 169.173 299.898 170.277 291.611 171.376C289.12 171.706 286.629 172.036 284.138 172.367C276.32 173.405 268.502 174.44 260.683 175.473C251.698 176.66 242.714 177.854 233.731 179.056C226.748 179.989 219.764 180.915 212.779 181.835C208.622 182.383 204.465 182.935 200.309 183.493C196.413 184.017 192.516 184.532 188.617 185.04C187.191 185.227 185.765 185.418 184.34 185.612C182.389 185.877 180.437 186.129 178.484 186.381C176.85 186.598 176.85 186.598 175.182 186.819C170.832 187.066 166.509 187.265 163.063 184.375C161.578 181.056 161.615 178.596 162 175C163.466 172.437 164.335 171.233 167.15 170.247C167.995 170.128 168.84 170.008 169.711 169.885C170.696 169.737 171.681 169.589 172.696 169.437C173.786 169.293 174.877 169.149 176 169C177.156 168.833 178.313 168.667 179.504 168.496C183.542 167.923 187.583 167.381 191.626 166.845C193.171 166.638 194.716 166.431 196.262 166.224C200.426 165.665 204.591 165.11 208.757 164.557C212.244 164.093 215.73 163.627 219.217 163.162C227.443 162.064 235.669 160.97 243.895 159.877C252.367 158.751 260.838 157.62 269.309 156.486C276.601 155.509 283.894 154.537 291.187 153.568C295.535 152.991 299.883 152.411 304.229 151.828C308.314 151.28 312.399 150.737 316.485 150.198C317.98 150 319.475 149.8 320.969 149.598C340.493 146.964 340.493 146.964 345 150.062Z" fill="#E5C667"/>
<path d="M335.937 81.0627C338.52 84.7408 338.721 86.5925 338 91.0002C336.386 93.7145 335.017 94.7279 331.964 95.5455C325.467 96.7861 318.961 97.7628 312.403 98.6201C310.733 98.8424 310.733 98.8424 309.029 99.0692C305.379 99.5538 301.729 100.033 298.078 100.512C295.528 100.848 292.979 101.184 290.429 101.519C285.1 102.22 279.771 102.918 274.442 103.615C268.291 104.418 262.142 105.231 255.993 106.048C250.057 106.837 244.119 107.615 238.181 108.39C235.662 108.72 233.144 109.053 230.626 109.389C227.112 109.857 223.596 110.314 220.079 110.769C218.522 110.98 218.522 110.98 216.933 111.195C205.419 112.655 205.419 112.655 200.625 109.375C198.363 106.069 198.509 103.926 199 100C200.455 97.4979 201.336 96.2469 204.077 95.2285C204.866 95.1037 205.656 94.979 206.469 94.8504C207.807 94.6295 207.807 94.6295 209.171 94.4041C210.572 94.2042 210.572 94.2042 212 94.0002C212.895 93.8654 213.79 93.7306 214.712 93.5917C217.635 93.1683 220.561 92.7786 223.489 92.3962C224.591 92.2496 225.693 92.103 226.829 91.952C230.441 91.4724 234.055 90.9978 237.668 90.5236C240.193 90.1904 242.718 89.8569 245.243 89.5233C250.52 88.8268 255.798 88.1328 261.076 87.4406C267.164 86.6422 273.251 85.838 279.337 85.0309C285.217 84.2516 291.096 83.4773 296.976 82.7051C299.469 82.3771 301.961 82.0478 304.453 81.717C307.935 81.2555 311.417 80.7997 314.899 80.3454C315.924 80.2083 316.949 80.0712 318.006 79.9299C331.788 78.149 331.788 78.149 335.937 81.0627Z" fill="#E5C667"/>
<path d="M262.688 371.5C264.246 374.469 264.519 376.688 264.629 380C263.635 383.161 261.717 384.181 259 386C256.414 386.641 254.101 387.076 251.48 387.379C250.389 387.525 250.389 387.525 249.275 387.674C246.914 387.986 244.551 388.275 242.188 388.562C240.56 388.771 238.933 388.982 237.306 389.194C234.059 389.614 230.812 390.024 227.563 390.427C223.536 390.928 219.516 391.467 215.496 392.019C213.372 392.305 211.249 392.59 209.125 392.875C208.171 393.007 207.218 393.139 206.235 393.275C195.427 394.661 195.427 394.661 190.625 391.375C188.348 388.046 188.436 385.949 189 382C190.623 379.27 191.999 378.266 195.069 377.451C201.244 376.276 207.421 375.311 213.652 374.492C214.633 374.362 215.614 374.231 216.624 374.097C218.684 373.825 220.744 373.554 222.803 373.285C225.927 372.876 229.048 372.456 232.17 372.035C234.185 371.77 236.2 371.506 238.215 371.242C239.592 371.055 239.592 371.055 240.997 370.863C257.713 368.723 257.713 368.723 262.688 371.5Z" fill="#E5C667"/>
<path d="M218 237.063C220.506 240.744 220.715 242.629 220 247C218.688 249.313 218.688 249.313 216 251C208.535 252.806 200.796 253.642 193.188 254.625C192.19 254.759 191.193 254.893 190.166 255.031C177.281 256.712 177.281 256.712 173.188 254.438C170.309 251.23 169.925 249.285 170 245C171.313 242.188 171.313 242.188 174 240C180.972 237.971 188.44 237.304 195.625 236.375C197.102 236.174 197.102 236.174 198.609 235.969C213.566 234.014 213.566 234.014 218 237.063Z" fill="#E5C667"/>
</svg>
